Coordinates
version=1
nRows=19
nColumns=24
inDegrees=yes

Units are S.I. units (second, meters, Newtons, ...)
Angles are in degrees.

endheader
time	pelvis_tilt	pelvis_list	pelvis_rotation	pelvis_tx	pelvis_ty	pelvis_tz	hip_flexion_r	hip_adduction_r	hip_rotation_r	knee_angle_r	ankle_angle_r	subtalar_angle_r	mtp_angle_r	hip_flexion_l	hip_adduction_l	hip_rotation_l	knee_angle_l	ankle_angle_l	subtalar_angle_l	mtp_angle_l	lumbar_extension	lumbar_bending	lumbar_rotation
      3.08500000	     -3.49417220	     -3.23003417	     -4.44187613	     -1.12496852	      0.93826606	      0.22878205	     14.01058877	     12.21151729	      8.46780771	    -22.00124400	     13.93898453	    -16.28051054	      0.00000000	     27.58076423	     -5.63243814	     -5.38839471	    -67.21721905	      6.62484361	    -14.37693176	      0.00000000	     -9.76595676	      3.75556808	     -4.24620464
      3.09000000	     -3.47316971	     -2.98847640	     -4.67045098	     -1.11838404	      0.93927801	      0.22938568	     13.27913461	     11.96937122	      8.81725890	    -21.54877736	     14.11380418	    -16.23251357	      0.00000000	     28.05542697	     -5.48608767	     -5.51940381	    -66.24001811	      7.26464309	    -13.69858079	      0.00000000	     -9.77401680	      3.40152594	     -4.05243338
      3.09500000	     -3.43909385	     -2.75528373	     -4.91009940	     -1.11180628	      0.94022881	      0.23001533	     12.53177143	     11.73069154	      9.18450550	    -21.08825779	     14.30614078	    -16.17576698	      0.00000000	     28.48317610	     -5.35242769	     -5.66595614	    -65.17847663	      7.82146539	    -13.08337014	      0.00000000	     -9.79804660	      3.05168774	     -3.82017174
      3.10000000	     -3.41873074	     -2.53384024	     -5.14216739	     -1.10522843	      0.94106798	      0.23061721	     11.81320630	     11.49321121	      9.50983011	    -20.64349962	     14.50746928	    -16.10040177	      0.00000000	     28.89294362	     -5.22019622	     -5.80484190	    -64.03088259	      8.32893415	    -12.55218698	      0.00000000	     -9.80349194	      2.72118659	     -3.60678971
      3.10500000	     -3.40185509	     -2.32499668	     -5.37456126	     -1.09865681	      0.94181195	      0.23121227	     11.11153761	     11.26138075	      9.81587899	    -20.21557598	     14.71167909	    -16.00473728	      0.00000000	     29.27161717	     -5.09179665	     -5.93759873	    -62.79706969	      8.78125999	    -12.10654882	      0.00000000	     -9.80414869	      2.40516212	     -3.39426974
      3.11000000	     -3.40620687	     -2.12974777	     -5.60021229	     -1.09205491	      0.94241441	      0.23178753	     10.44460710	     11.03689866	     10.07398529	    -19.80303330	     14.93436319	    -15.90621321	      0.00000000	     29.64172303	     -4.97338112	     -6.07041207	    -61.48950763	      9.19200474	    -11.72687311	      0.00000000	     -9.77346458	      2.11499296	     -3.21214511
      3.11500000	     -3.38248520	     -1.95124864	     -5.84212571	     -1.08548297	      0.94296620	      0.23233394	      9.76442292	     10.82451216	     10.37150544	    -19.42406784	     15.15835338	    -15.78794366	      0.00000000	     29.94038030	     -4.84892625	     -6.17922179	    -60.09092313	      9.54820834	    -11.45415633	      0.00000000	     -9.78404315	      1.83949363	     -2.96231973
      3.12000000	     -3.43812988	     -1.80532419	     -6.01244452	     -1.07890437	      0.94326508	      0.23278727	      9.19113579	     10.64106665	     10.56203448	    -19.06880918	     15.37105208	    -15.70816503	      0.00000000	     30.31634147	     -4.72103763	     -6.19450738	    -58.64585470	      9.89687704	    -11.19609409	      0.00000000	     -9.69764231	      1.62187480	     -2.84811740
      3.12500000	     -3.37397522	     -1.64861297	     -6.30050001	     -1.07227646	      0.94367325	      0.23337082	      8.48274644	     10.44589388	     10.88612904	    -18.72487209	     15.63115710	    -15.58863785	      0.00000000	     30.49039265	     -4.63021130	     -6.35888614	    -57.08953877	     10.13957986	    -11.08408683	      0.00000000	     -9.74868994	      1.36722024	     -2.52611752
      3.13000000	     -3.42977731	     -1.53655473	     -6.46616860	     -1.06566236	      0.94375043	      0.23378942	      7.93247849	     10.29592882	     11.07453697	    -18.41570632	     15.85978270	    -15.54184237	      0.00000000	     30.80055562	     -4.51257181	     -6.33233223	    -55.50781909	     10.42062626	    -10.91394642	      0.00000000	     -9.66123057	      1.19538017	     -2.40379641
      3.13500000	     -3.35737711	     -1.42203383	     -6.74197761	     -1.05901388	      0.94395903	      0.23430748	      7.24044563	     10.13724339	     11.39325546	    -18.11937543	     16.11017413	    -15.46895611	      0.00000000	     30.90352859	     -4.43516685	     -6.45348500	    -53.81756896	     10.59844710	    -10.89519802	      0.00000000	     -9.72450244	      0.99517911	     -2.09642892
      3.14000000	     -3.34383735	     -1.33722428	     -6.95168696	     -1.05236056	      0.94395181	      0.23473218	      6.63010033	     10.01052242	     11.64990695	    -17.85106034	     16.34567982	    -15.45350718	      0.00000000	     31.05778111	     -4.34592998	     -6.46261456	    -52.08765089	     10.79400224	    -10.82669884	      0.00000000	     -9.72141193	      0.84652226	     -1.89306137
      3.14500000	     -3.36362671	     -1.26376815	     -7.15113484	     -1.04567765	      0.94379056	      0.23511942	      6.06856767	      9.89729491	     11.88302572	    -17.60651746	     16.58823298	    -15.45811205	      0.00000000	     31.22066405	     -4.26349199	     -6.45682140	    -50.30485079	     10.97674782	    -10.74258334	      0.00000000	     -9.67664582	      0.72605826	     -1.72935637
      3.15000000	     -3.36655607	     -1.20850141	     -7.35764985	     -1.03899328	      0.94355640	      0.23551400	      5.50122383	      9.80401252	     12.13777961	    -17.39194682	     16.83735739	    -15.47657696	      0.00000000	     31.33066479	     -4.18871665	     -6.41922339	    -48.46254994	     11.14560109	    -10.65284541	      0.00000000	     -9.65600619	      0.61436364	     -1.53391059
      3.15500000	     -3.31593786	     -1.18665469	     -7.56569035	     -1.03232715	      0.94330795	      0.23585371	      4.88455819	      9.73762146	     12.43293236	    -17.20192815	     17.07592828	    -15.51972345	      0.00000000	     31.35176611	     -4.13143520	     -6.35885292	    -46.56510916	     11.30284224	    -10.55588085	      0.00000000	     -9.71552403	      0.54373276	     -1.27902049
      3.16000000	     -3.34398582	     -1.15784677	     -7.74430436	     -1.02558995	      0.94285233	      0.23618802	      4.36123918	      9.67224973	     12.65826402	    -17.02480326	     17.32933898	    -15.57652554	      0.00000000	     31.43262661	     -4.07089632	     -6.27771432	    -44.62590540	     11.46948068	    -10.36295827	      0.00000000	     -9.66712198	      0.47687573	     -1.14636360
      3.16500000	     -3.29841918	     -1.15842682	     -7.94106586	     -1.01889759	      0.94241818	      0.23646933	      3.76953393	      9.62661660	     12.94462337	    -16.87784062	     17.58474210	    -15.64330285	      0.00000000	     31.39869767	     -4.02422371	     -6.17376842	    -42.63014579	     11.63083051	    -10.16040183	      0.00000000	     -9.73063139	      0.44043748	     -0.90621075
      3.17000000	     -3.37341303	     -1.16856657	     -8.06668522	     -1.01217771	      0.94169932	      0.23669597	      3.33029612	      9.60748419	     13.12205943	    -16.77109003	     17.86019335	    -15.70149047	      0.00000000	     31.48844171	     -3.97544359	     -5.98485024	    -40.62043117	     11.81796103	     -9.81125593	      0.00000000	     -9.64500962	      0.43324294	     -0.79695498
      3.17500000	     -3.32823421	     -1.15771868	     -8.28083180	     -1.00539435	      0.94114132	      0.23700516	      2.74075504	      9.54327199	     13.39137966	    -16.63108634	     18.13817095	    -15.75060727	      0.00000000	     31.38055273	     -3.94020837	     -5.92056433	    -38.51865570	     11.96051250	     -9.47916867	      0.00000000	     -9.69982790	      0.38289877	     -0.60935131
